name rise30.6535peak61.5555fall82.9339.mot
datacolumns 19
datarows 15
range 17.39993200000000 17.42326300000000
endheader
time	ground_force1_vx	ground_force1_vy	ground_force1_vz	ground_force1_px	ground_force1_py	ground_force1_pz	ground_force2_vx	ground_force2_vy	ground_force2_vz	ground_force2_px	ground_force2_py	ground_force2_pz	ground_torque1_x	ground_torque1_y	ground_torque1_z	ground_torque2_x	ground_torque2_y	ground_torque2_z	
17.39993200000000	10.65621400000000	698.44656599999996	43.74108900000000	0.24956000000000	0.00000000000000	0.12839100000000	0.00000000000000	0.00000000000000	0.00000000000000	0.00000000000000	0.00000000000000	0.00000000000000	0.00000000000000	18.94291700000000	0.00000000000000	0.00000000000000	0.00000000000000	0.00000000000000	
17.40161600000000	10.12552000000000	699.24248499999999	43.78686900000000	0.24895000000000	0.00000000000000	0.12839000000000	0.00000000000000	0.00000000000000	0.00000000000000	0.00000000000000	0.00000000000000	0.00000000000000	0.00000000000000	19.03719600000000	0.00000000000000	0.00000000000000	0.00000000000000	0.00000000000000	
17.40326600000000	9.58249900000000	700.07852400000002	43.83747800000000	0.24834000000000	0.00000000000000	0.12838900000000	0.00000000000000	0.00000000000000	0.00000000000000	0.00000000000000	0.00000000000000	0.00000000000000	0.00000000000000	19.13770800000000	0.00000000000000	0.00000000000000	0.00000000000000	0.00000000000000	
17.40493300000000	9.02672700000000	700.95455600000003	43.89275200000000	0.24772800000000	0.00000000000000	0.12838800000000	0.00000000000000	0.00000000000000	0.00000000000000	0.00000000000000	0.00000000000000	0.00000000000000	0.00000000000000	19.24432000000000	0.00000000000000	0.00000000000000	0.00000000000000	0.00000000000000	
17.40659400000000	8.45782000000000	701.87049500000001	43.95252500000000	0.24711200000000	0.00000000000000	0.12838700000000	0.00000000000000	0.00000000000000	0.00000000000000	0.00000000000000	0.00000000000000	0.00000000000000	0.00000000000000	19.35689000000000	0.00000000000000	0.00000000000000	0.00000000000000	0.00000000000000	
17.40826100000000	7.87543200000000	702.82628599999998	44.01663500000000	0.24648900000000	0.00000000000000	0.12838500000000	0.00000000000000	0.00000000000000	0.00000000000000	0.00000000000000	0.00000000000000	0.00000000000000	0.00000000000000	19.47527100000000	0.00000000000000	0.00000000000000	0.00000000000000	0.00000000000000	
17.40992900000000	7.27926300000000	703.82190400000002	44.08492100000000	0.24585700000000	0.00000000000000	0.12838300000000	0.00000000000000	0.00000000000000	0.00000000000000	0.00000000000000	0.00000000000000	0.00000000000000	0.00000000000000	19.59930900000000	0.00000000000000	0.00000000000000	0.00000000000000	0.00000000000000	
17.41160200000000	6.66905800000000	704.85734800000000	44.15722500000000	0.24521400000000	0.00000000000000	0.12838200000000	0.00000000000000	0.00000000000000	0.00000000000000	0.00000000000000	0.00000000000000	0.00000000000000	0.00000000000000	19.72884200000000	0.00000000000000	0.00000000000000	0.00000000000000	0.00000000000000	
17.41326100000000	6.04460700000000	705.93263800000000	44.23339100000000	0.24455800000000	0.00000000000000	0.12838000000000	0.00000000000000	0.00000000000000	0.00000000000000	0.00000000000000	0.00000000000000	0.00000000000000	0.00000000000000	19.86370300000000	0.00000000000000	0.00000000000000	0.00000000000000	0.00000000000000	
17.41492700000000	5.40575200000000	707.04780600000004	44.31326400000000	0.24388700000000	0.00000000000000	0.12837900000000	0.00000000000000	0.00000000000000	0.00000000000000	0.00000000000000	0.00000000000000	0.00000000000000	0.00000000000000	20.00371900000000	0.00000000000000	0.00000000000000	0.00000000000000	0.00000000000000	
17.41661600000000	4.75238400000000	708.20289300000002	44.39669300000000	0.24319900000000	0.00000000000000	0.12837700000000	0.00000000000000	0.00000000000000	0.00000000000000	0.00000000000000	0.00000000000000	0.00000000000000	0.00000000000000	20.14870800000000	0.00000000000000	0.00000000000000	0.00000000000000	0.00000000000000	
17.41826100000000	4.08444200000000	709.39794199999994	44.48352800000000	0.24249300000000	0.00000000000000	0.12837600000000	0.00000000000000	0.00000000000000	0.00000000000000	0.00000000000000	0.00000000000000	0.00000000000000	0.00000000000000	20.29848700000000	0.00000000000000	0.00000000000000	0.00000000000000	0.00000000000000	
17.41993400000000	3.40192300000000	710.63299300000006	44.57362400000000	0.24176600000000	0.00000000000000	0.12837600000000	0.00000000000000	0.00000000000000	0.00000000000000	0.00000000000000	0.00000000000000	0.00000000000000	0.00000000000000	20.45286500000000	0.00000000000000	0.00000000000000	0.00000000000000	0.00000000000000	
17.42159500000000	2.70487300000000	711.90807900000004	44.66683600000000	0.24101800000000	0.00000000000000	0.12837500000000	0.00000000000000	0.00000000000000	0.00000000000000	0.00000000000000	0.00000000000000	0.00000000000000	0.00000000000000	20.61164700000000	0.00000000000000	0.00000000000000	0.00000000000000	0.00000000000000	
17.42326300000000	1.99339400000000	713.22321399999998	44.76302400000000	0.24024800000000	0.00000000000000	0.12837500000000	0.00000000000000	0.00000000000000	0.00000000000000	0.00000000000000	0.00000000000000	0.00000000000000	0.00000000000000	20.77463200000000	0.00000000000000	0.00000000000000	0.00000000000000	0.00000000000000	
